<?xml version="1.0" encoding="utf-8"?>
<!-- Generator: Adobe Illustrator 26.5.0, SVG Export Plug-In . SVG Version: 6.00 Build 0)  -->
<svg version="1.1" id="Layer_1" xmlns="http://www.w3.org/2000/svg" xmlns:xlink="http://www.w3.org/1999/xlink" x="0px" y="0px"
	 viewBox="0 0 30 30" style="enable-background:new 0 0 30 30;" xml:space="preserve">
<style type="text/css">
	.st0{fill-rule:evenodd;clip-rule:evenodd;fill:#5E533E;}
</style>
<path class="st0" d="M15,0C6.7,0,0,6.7,0,15c0,6.6,4.3,12.2,10.3,14.2c0.8,0.1,1-0.3,1-0.7c0-0.4,0-1.5,0-2.8
	c-3.8,0.7-4.7-0.9-5-1.8c-0.2-0.4-0.9-1.8-1.5-2.1c-0.5-0.3-1.3-1,0-1c1.2,0,2,1.1,2.3,1.5c1.3,2.3,3.5,1.6,4.4,1.2
	c0.1-1,0.5-1.6,1-2C9,21.2,5.5,20,5.5,14.2c0-1.6,0.6-3,1.5-4c-0.1-0.4-0.7-1.9,0.2-4c0,0,1.3-0.4,4.1,1.5c1.2-0.3,2.5-0.5,3.8-0.5
	s2.5,0.2,3.8,0.5c2.9-2,4.1-1.5,4.1-1.5c0.8,2.1,0.3,3.6,0.1,4c1,1.1,1.5,2.4,1.5,4c0,5.8-3.5,7-6.8,7.4c0.5,0.5,1,1.4,1,2.8
	c0,2,0,3.6,0,4.1c0,0.4,0.3,0.9,1,0.7C25.7,27.2,30,21.6,30,15C30,6.7,23.3,0,15,0z"/>
</svg>
