<?xml version="1.0" encoding="utf-8"?>
<!-- Generator: Adobe Illustrator 26.5.0, SVG Export Plug-In . SVG Version: 6.00 Build 0)  -->
<svg version="1.1" id="Layer_1" xmlns="http://www.w3.org/2000/svg" xmlns:xlink="http://www.w3.org/1999/xlink" x="0px" y="0px"
	 viewBox="0 0 30 30" style="enable-background:new 0 0 30 30;" xml:space="preserve">
<style type="text/css">
	.st0{fill-rule:evenodd;clip-rule:evenodd;fill:#5E533E;}
	.st1{fill-rule:evenodd;clip-rule:evenodd;fill:#FFFFFF;}
</style>
<g>
	<path class="st0" d="M3.3,30h23.3c1.8,0,3.3-1.5,3.3-3.3V3.3C30,1.5,28.5,0,26.7,0H3.3C1.5,0,0,1.5,0,3.3v23.3
		C0,28.5,1.5,30,3.3,30z"/>
	<path class="st1" d="M25.8,25.8h-4.5v-7.6c0-2.1-0.8-3.2-2.4-3.2c-1.8,0-2.7,1.2-2.7,3.2v7.6h-4.3V11.4h4.3v1.9
		c0,0,1.3-2.4,4.4-2.4c3.1,0,5.3,1.9,5.3,5.7V25.8z M6.8,9.5c-1.5,0-2.6-1.2-2.6-2.7s1.2-2.7,2.6-2.7s2.6,1.2,2.6,2.7
		S8.3,9.5,6.8,9.5z M4.6,25.8h4.5V11.4H4.6V25.8z"/>
</g>
</svg>
