<?xml version="1.0" encoding="utf-8"?>
<!-- Generator: Adobe Illustrator 27.3.1, SVG Export Plug-In . SVG Version: 6.00 Build 0)  -->
<svg version="1.1" id="Layer_1" xmlns="http://www.w3.org/2000/svg" xmlns:xlink="http://www.w3.org/1999/xlink" x="0px" y="0px"
	 viewBox="0 0 1000 1000" style="enable-background:new 0 0 1000 1000;" xml:space="preserve">
<style type="text/css">
	.st0{fill:#EFEDED;}
	.st1{fill:#7F5932;}
	.st2{fill:#17181A;}
	.st3{fill:#DDDDDD;}
	.st4{fill:#462A1E;}
	.st5{fill:#AC9084;}
	.st6{fill:#FFFFFF;}
</style>
<rect y="0" class="st0" width="1000" height="1000"/>
<g>
	<g>
		<g>
			<g>
				<path class="st1" d="M425.28,353.05l-52.86,124.59h5.45l45.32-106.54v106.54h28.13v-91c0-7.56,1.33-14.41,4-20.58
					c2.66-6.14,8.04-10.5,16.16-13.01H425.28z M455.31,633.72c-2.67-6.29-4-13.23-4-20.79v-67.36h-28.13v67.36
					c0,7.84-1.4,14.85-4.2,20.99c-2.8,6.17-8.26,10.5-16.37,13.02h68.86C463.35,644.42,457.96,640.02,455.31,633.72z M343.6,545.58
					l-25.37,59.8l-29.25-59.8h-32l49.07,100.95l42.93-100.95H343.6z M194.78,353.05h-56.68c8.11,2.52,15.18,6.72,21.2,12.6
					c6.03,5.87,9.04,13.43,9.04,22.66v89.33h4.61V372.79l50.98,104.86h31.81L194.78,353.05z M181.56,633.52
					c-5.73-5.88-8.61-13.86-8.61-23.94v-64h-4.61v64c0,9.8-2.81,17.71-8.4,23.72c-5.6,6.03-12.88,10.57-21.83,13.65h65.5
					C194.64,643.87,187.29,639.39,181.56,633.52z"/>
			</g>
		</g>
		<g>
			<g>
				<path class="st1" d="M860.91,353.05H605.32l-12.62,48.29c8.41-12.87,19.36-23.16,32.84-30.86c13.45-7.7,29.29-11.55,47.48-11.55
					h42.93l-0.24,118.72h34.08V358.92h43.95c17.5,0,33.26,3.85,47.23,11.55c13.97,7.7,25.01,17.84,33.08,30.44L860.91,353.05z
					 M754.83,633.3c-3.37-6.58-5.05-13.5-5.05-20.79v-66.93h-34.22l-0.13,66.93c0,7.56-1.6,14.57-4.79,21
					c-3.21,6.44-9.69,10.91-19.45,13.43h82.84C764.59,644.42,758.2,639.88,754.83,633.3z"/>
			</g>
		</g>
		<g>
			<g>
				<g>
					<path class="st1" d="M546.09,310.58v167.06h-4.32V310.58c0-1.2,0.97-2.16,2.16-2.16c0.6,0,1.14,0.24,1.53,0.63
						C545.86,309.45,546.09,309.99,546.09,310.58z"/>
				</g>
			</g>
			<g>
				<g>
					<path class="st1" d="M541.78,545.58h4.32v143.83c0,1.2-0.96,2.16-2.16,2.16c-1.19,0-2.16-0.96-2.16-2.16V545.58z"/>
				</g>
			</g>
		</g>
	</g>
	<g>
		<g>
			<g>
				<path class="st1" d="M117.17,538.1v-53.11h6.13l17.49,37.61l1.73,3.43l1.77-4.1l16.05-36.94h5.54v53.11h-6.86v-48.46
					l-19.01,43.59l-1.4,0.3l-20.63-43.47v48.05H117.17z"/>
			</g>
		</g>
		<g>
			<g>
				<path class="st1" d="M221.71,538.1h-7.34l-6.2-16.61H185.1l-6.27,16.61h-0.89l20.08-53.11h3.51L221.71,538.1z M196.69,490.79
					l-11.29,29.89h22.48L196.69,490.79z"/>
			</g>
		</g>
		<g>
			<g>
				<path class="st1" d="M243.62,538.1h-6.86v-52.3h-17.31l0.04-0.81h41.33v0.81h-17.2V538.1z"/>
			</g>
		</g>
		<g>
			<g>
				<path class="st1" d="M305.64,510.6v-25.61h6.86v53.11h-6.86v-26.72h-25.87v26.72h-6.86v-53.11h6.86v25.61H305.64z"/>
			</g>
		</g>
		<g>
			<g>
				<path class="st1" d="M362.02,538.1h-31.74v-53.11h31.37l-0.04,0.81h-24.47v24.58h16.61v0.81h-16.61v26.09h24.87V538.1z"/>
			</g>
		</g>
		<g>
			<g>
				<path class="st1" d="M421.94,518.91l11.55-33.92h0.85l-18.12,53.11h-2.73l-11.99-36.94l-12.03,36.94h-2.69l-17.64-53.11
					l7.49-0.04l14.58,45.62l9.89-30.71l-0.26-0.78l-4.54-14.1h7.42l14.25,45.58L421.94,518.91z"/>
			</g>
		</g>
		<g>
			<g>
				<path class="st1" d="M485.5,538.1h-6.86v-52.3h-17.31l0.04-0.81h41.33v0.81h-17.2V538.1z"/>
			</g>
		</g>
		<g>
			<g>
				<path class="st1" d="M547.52,510.6v-25.61h6.86v53.11h-6.86v-26.72h-25.87v26.72h-6.86v-53.11h6.86v25.61H547.52z"/>
			</g>
		</g>
		<g>
			<g>
				<path class="st1" d="M581.07,535.52c-3.8-2.31-6.74-5.51-8.82-9.6c-2.08-4.08-3.12-8.72-3.12-13.91
					c0-5.34,1.04-10.12,3.12-14.34c2.08-4.22,5.02-7.53,8.82-9.93c3.8-2.4,8.2-3.6,13.19-3.6s9.4,1.17,13.21,3.51
					c3.81,2.34,6.77,5.59,8.86,9.74c2.09,4.16,3.14,8.89,3.14,14.21c0,5.31-1.04,10.04-3.12,14.19c-2.08,4.15-5.03,7.38-8.84,9.71
					c-3.81,2.33-8.23,3.49-13.25,3.49C589.27,538.98,584.87,537.83,581.07,535.52z M604.12,535.17c2.61-2.01,4.6-4.84,5.96-8.51
					c1.37-3.67,2.05-7.92,2.05-12.77c0-3.54-0.46-7.5-1.38-11.86c-0.92-4.37-2.74-8.3-5.46-11.81c-2.72-3.51-6.56-5.26-11.53-5.26
					c-3.54,0-6.62,1.01-9.23,3.04s-4.6,4.88-5.98,8.54c-1.38,3.67-2.07,7.92-2.07,12.77c0,3.54,0.46,7.49,1.37,11.85
					s2.72,8.28,5.43,11.77c2.71,3.49,6.53,5.24,11.48,5.24C598.39,538.17,601.51,537.17,604.12,535.17z"/>
			</g>
		</g>
		<g>
			<g>
				<path class="st1" d="M672.27,538.1h-8.16l-12.81-25.35c-1.03,0.05-1.82,0.07-2.36,0.07h-4.76l-0.22-0.66h4.47
					c4.63,0,7.96-1.18,10-3.54s3.06-5.72,3.06-10.08c0-3.84-1.01-6.92-3.04-9.24c-2.03-2.33-5.19-3.49-9.47-3.49h-7.9v52.3h-6.86
					v-53.11h17.31c3.81,0,7.01,0.55,9.6,1.64c2.58,1.1,4.5,2.63,5.76,4.61c1.25,1.98,1.88,4.32,1.88,7.03
					c0,4.18-1.29,7.47-3.86,9.85c-2.57,2.39-6.32,3.86-11.24,4.43l4.65,0.85L672.27,538.1z"/>
			</g>
		</g>
		<g>
			<g>
				<path class="st1" d="M723.77,538.1l-3.03,0.44l-34.4-47.39v46.94h-0.81v-53.11h4.35l33.1,45.47v-45.47h0.78V538.1z"/>
			</g>
		</g>
		<g>
			<g>
				<path class="st1" d="M760.04,538.1h-6.86v-52.3h-17.31l0.04-0.81h41.33v0.81h-17.2V538.1z"/>
			</g>
		</g>
		<g>
			<g>
				<path class="st1" d="M791.45,535.52c-3.8-2.31-6.74-5.51-8.82-9.6c-2.08-4.08-3.12-8.72-3.12-13.91
					c0-5.34,1.04-10.12,3.12-14.34c2.08-4.22,5.02-7.53,8.82-9.93c3.8-2.4,8.2-3.6,13.19-3.6s9.4,1.17,13.21,3.51
					c3.81,2.34,6.77,5.59,8.86,9.74c2.09,4.16,3.14,8.89,3.14,14.21c0,5.31-1.04,10.04-3.12,14.19c-2.08,4.15-5.03,7.38-8.84,9.71
					c-3.81,2.33-8.23,3.49-13.25,3.49C799.65,538.98,795.25,537.83,791.45,535.52z M814.5,535.17c2.61-2.01,4.6-4.84,5.96-8.51
					c1.37-3.67,2.05-7.92,2.05-12.77c0-3.54-0.46-7.5-1.38-11.86c-0.92-4.37-2.74-8.3-5.46-11.81c-2.72-3.51-6.56-5.26-11.53-5.26
					c-3.54,0-6.62,1.01-9.23,3.04s-4.6,4.88-5.98,8.54c-1.38,3.67-2.07,7.92-2.07,12.77c0,3.54,0.46,7.49,1.37,11.85
					s2.72,8.28,5.43,11.77c2.71,3.49,6.53,5.24,11.48,5.24C808.76,538.17,811.89,537.17,814.5,535.17z"/>
			</g>
		</g>
		<g>
			<g>
				<path class="st1" d="M882.83,538.1l-3.03,0.44l-34.4-47.39v46.94h-0.81v-53.11h4.35l33.1,45.47v-45.47h0.78V538.1z"/>
			</g>
		</g>
	</g>
</g>
</svg>
