<?xml version="1.0" encoding="utf-8"?>
<!-- Generator: Adobe Illustrator 26.5.0, SVG Export Plug-In . SVG Version: 6.00 Build 0)  -->
<svg version="1.1" id="Layer_1" xmlns="http://www.w3.org/2000/svg" xmlns:xlink="http://www.w3.org/1999/xlink" x="0px" y="0px"
	 viewBox="0 0 770 388" style="enable-background:new 0 0 770 388;" xml:space="preserve">
<style type="text/css">
	.st0{fill:#5E533E;}
</style>
<g>
	<g>
		<g>
			<g>
				<path class="st0" d="M310.75,46.9l-52.86,124.59h5.45l45.32-106.54v106.54h28.13v-91c0-7.56,1.33-14.41,4-20.58
					c2.66-6.14,8.04-10.5,16.16-13.01H310.75z M340.78,327.57c-2.67-6.29-4-13.23-4-20.79v-67.36h-28.13v67.36
					c0,7.84-1.4,14.85-4.2,20.99c-2.8,6.17-8.26,10.5-16.37,13.02h68.86C348.82,338.27,343.43,333.87,340.78,327.57z M229.07,239.43
					l-25.37,59.8l-29.25-59.8h-32l49.07,100.95l42.93-100.95H229.07z M80.25,46.9H23.57c8.11,2.52,15.18,6.72,21.2,12.6
					c6.03,5.87,9.04,13.43,9.04,22.66v89.33h4.61V66.64L109.4,171.5h31.81L80.25,46.9z M67.03,327.37
					c-5.73-5.88-8.61-13.86-8.61-23.94v-64h-4.61v64c0,9.8-2.81,17.71-8.4,23.72c-5.6,6.03-12.88,10.57-21.83,13.65h65.5
					C80.11,337.72,72.76,333.24,67.03,327.37z"/>
			</g>
		</g>
		<g>
			<g>
				<path class="st0" d="M746.38,46.9H490.79l-12.62,48.29c8.41-12.87,19.36-23.16,32.84-30.86c13.45-7.7,29.29-11.55,47.48-11.55
					h42.93l-0.24,118.72h34.08V52.77h43.95c17.5,0,33.26,3.85,47.23,11.55c13.97,7.7,25.01,17.84,33.08,30.44L746.38,46.9z
					 M640.3,327.15c-3.37-6.58-5.05-13.5-5.05-20.79v-66.93h-34.22l-0.13,66.93c0,7.56-1.6,14.57-4.79,21
					c-3.21,6.44-9.69,10.91-19.45,13.43h82.84C650.06,338.27,643.67,333.73,640.3,327.15z"/>
			</g>
		</g>
		<g>
			<g>
				<g>
					<path class="st0" d="M431.56,4.43v167.06h-4.32V4.43c0-1.2,0.97-2.16,2.16-2.16c0.6,0,1.14,0.24,1.53,0.63
						C431.33,3.3,431.56,3.84,431.56,4.43z"/>
				</g>
			</g>
			<g>
				<g>
					<path class="st0" d="M427.25,239.43h4.32v143.83c0,1.2-0.96,2.16-2.16,2.16c-1.19,0-2.16-0.96-2.16-2.16L427.25,239.43
						L427.25,239.43z"/>
				</g>
			</g>
		</g>
	</g>
	<g>
		<g>
			<g>
				<path class="st0" d="M2.64,231.95v-53.11h6.13l17.49,37.61l1.73,3.43l1.77-4.1l16.05-36.94h5.54v53.11h-6.86v-48.46
					l-19.01,43.59l-1.4,0.3L3.45,183.91v48.05H2.64V231.95z"/>
			</g>
		</g>
		<g>
			<g>
				<path class="st0" d="M107.18,231.95h-7.34l-6.2-16.61H70.57l-6.27,16.61h-0.89l20.08-53.11H87L107.18,231.95z M82.16,184.64
					l-11.29,29.89h22.48L82.16,184.64z"/>
			</g>
		</g>
		<g>
			<g>
				<path class="st0" d="M129.09,231.95h-6.86v-52.3h-17.31l0.04-0.81h41.33v0.81h-17.2V231.95L129.09,231.95z"/>
			</g>
		</g>
		<g>
			<g>
				<path class="st0" d="M191.11,204.45v-25.61h6.86v53.11h-6.86v-26.72h-25.87v26.72h-6.86v-53.11h6.86v25.61L191.11,204.45
					L191.11,204.45z"/>
			</g>
		</g>
		<g>
			<g>
				<path class="st0" d="M247.49,231.95h-31.74v-53.11h31.37l-0.04,0.81h-24.47v24.58h16.61v0.81h-16.61v26.09h24.87L247.49,231.95
					L247.49,231.95z"/>
			</g>
		</g>
		<g>
			<g>
				<path class="st0" d="M307.41,212.76l11.55-33.92h0.85l-18.12,53.11h-2.73l-11.99-36.94l-12.03,36.94h-2.69l-17.64-53.11
					l7.49-0.04l14.58,45.62l9.89-30.71l-0.26-0.78l-4.54-14.1h7.42l14.25,45.58L307.41,212.76z"/>
			</g>
		</g>
		<g>
			<g>
				<path class="st0" d="M370.97,231.95h-6.86v-52.3H346.8l0.04-0.81h41.33v0.81h-17.2V231.95z"/>
			</g>
		</g>
		<g>
			<g>
				<path class="st0" d="M432.99,204.45v-25.61h6.86v53.11h-6.86v-26.72h-25.87v26.72h-6.86v-53.11h6.86v25.61L432.99,204.45
					L432.99,204.45z"/>
			</g>
		</g>
		<g>
			<g>
				<path class="st0" d="M466.54,229.37c-3.8-2.31-6.74-5.51-8.82-9.6c-2.08-4.08-3.12-8.72-3.12-13.91
					c0-5.34,1.04-10.12,3.12-14.34s5.02-7.53,8.82-9.93s8.2-3.6,13.19-3.6s9.4,1.17,13.21,3.51s6.77,5.59,8.86,9.74
					c2.09,4.16,3.14,8.89,3.14,14.21c0,5.31-1.04,10.04-3.12,14.19c-2.08,4.15-5.03,7.38-8.84,9.71s-8.23,3.49-13.25,3.49
					C474.74,232.83,470.34,231.68,466.54,229.37z M489.59,229.02c2.61-2.01,4.6-4.84,5.96-8.51c1.37-3.67,2.05-7.92,2.05-12.77
					c0-3.54-0.46-7.5-1.38-11.86c-0.92-4.37-2.74-8.3-5.46-11.81c-2.72-3.51-6.56-5.26-11.53-5.26c-3.54,0-6.62,1.01-9.23,3.04
					s-4.6,4.88-5.98,8.54c-1.38,3.67-2.07,7.92-2.07,12.77c0,3.54,0.46,7.49,1.37,11.85s2.72,8.28,5.43,11.77s6.53,5.24,11.48,5.24
					C483.86,232.02,486.98,231.02,489.59,229.02z"/>
			</g>
		</g>
		<g>
			<g>
				<path class="st0" d="M557.74,231.95h-8.16l-12.81-25.35c-1.03,0.05-1.82,0.07-2.36,0.07h-4.76l-0.22-0.66h4.47
					c4.63,0,7.96-1.18,10-3.54s3.06-5.72,3.06-10.08c0-3.84-1.01-6.92-3.04-9.24c-2.03-2.33-5.19-3.49-9.47-3.49h-7.9v52.3h-6.86
					v-53.11H537c3.81,0,7.01,0.55,9.6,1.64c2.58,1.1,4.5,2.63,5.76,4.61c1.25,1.98,1.88,4.32,1.88,7.03c0,4.18-1.29,7.47-3.86,9.85
					c-2.57,2.39-6.32,3.86-11.24,4.43l4.65,0.85L557.74,231.95z"/>
			</g>
		</g>
		<g>
			<g>
				<path class="st0" d="M609.24,231.95l-3.03,0.44L571.81,185v46.94H571v-53.11h4.35l33.1,45.47v-45.47h0.78v53.12H609.24z"/>
			</g>
		</g>
		<g>
			<g>
				<path class="st0" d="M645.51,231.95h-6.86v-52.3h-17.31l0.04-0.81h41.33v0.81h-17.2V231.95z"/>
			</g>
		</g>
		<g>
			<g>
				<path class="st0" d="M676.92,229.37c-3.8-2.31-6.74-5.51-8.82-9.6c-2.08-4.08-3.12-8.72-3.12-13.91
					c0-5.34,1.04-10.12,3.12-14.34s5.02-7.53,8.82-9.93s8.2-3.6,13.19-3.6s9.4,1.17,13.21,3.51s6.77,5.59,8.86,9.74
					c2.09,4.16,3.14,8.89,3.14,14.21c0,5.31-1.04,10.04-3.12,14.19c-2.08,4.15-5.03,7.38-8.84,9.71s-8.23,3.49-13.25,3.49
					C685.12,232.83,680.72,231.68,676.92,229.37z M699.97,229.02c2.61-2.01,4.6-4.84,5.96-8.51c1.37-3.67,2.05-7.92,2.05-12.77
					c0-3.54-0.46-7.5-1.38-11.86c-0.92-4.37-2.74-8.3-5.46-11.81c-2.72-3.51-6.56-5.26-11.53-5.26c-3.54,0-6.62,1.01-9.23,3.04
					s-4.6,4.88-5.98,8.54c-1.38,3.67-2.07,7.92-2.07,12.77c0,3.54,0.46,7.49,1.37,11.85s2.72,8.28,5.43,11.77s6.53,5.24,11.48,5.24
					C694.23,232.02,697.36,231.02,699.97,229.02z"/>
			</g>
		</g>
		<g>
			<g>
				<path class="st0" d="M768.3,231.95l-3.03,0.44L730.87,185v46.94h-0.81v-53.11h4.35l33.1,45.47v-45.47h0.78v53.12H768.3z"/>
			</g>
		</g>
	</g>
</g>
</svg>
